<svg width="11" height="19" viewBox="0 0 11 19" fill="none" xmlns="http://www.w3.org/2000/svg">
<path d="M3.60602 6.3327V13.0616C3.6138 13.5547 3.81514 14.0249 4.16659 14.3709C4.51803 14.7168 4.9914 14.9107 5.48453 14.9107C5.97767 14.9107 6.45103 14.7168 6.80247 14.3709C7.15392 14.0249 7.35526 13.5547 7.36305 13.0616L7.36914 4.22332C7.37425 3.80188 7.29566 3.38362 7.13792 2.99278C6.98018 2.60194 6.74643 2.2463 6.45022 1.94648C6.15401 1.64665 5.80123 1.4086 5.41233 1.24613C5.02344 1.08366 4.60616 1 4.18469 1C3.76322 1 3.34594 1.08366 2.95704 1.24613C2.56814 1.4086 2.21537 1.64665 1.91915 1.94648C1.62294 2.2463 1.38919 2.60194 1.23145 2.99278C1.07371 3.38362 0.995121 3.80188 1.00023 4.22332V13.1211C1.01725 14.2972 1.49638 15.4193 2.33405 16.2449C3.17171 17.0705 4.30064 17.5334 5.4768 17.5334C6.65296 17.5334 7.78188 17.0705 8.61955 16.2449C9.45722 15.4193 9.93634 14.2972 9.95336 13.1211V4.80645" stroke="white" stroke-width="2" stroke-miterlimit="10" stroke-linecap="square"/>
</svg>
