<svg width="22" height="22" viewBox="0 0 22 22" fill="none" xmlns="http://www.w3.org/2000/svg">
<path d="M11 0C12.0098 0 12.9837 0.128906 13.9219 0.386719C14.86 0.644531 15.7337 1.01693 16.543 1.50391C17.3522 1.99089 18.0934 2.5638 18.7666 3.22266C19.4398 3.88151 20.0163 4.62272 20.4961 5.44629C20.9759 6.26986 21.3447 7.14714 21.6025 8.07812C21.8604 9.00911 21.9928 9.98307 22 11C22 12.3177 21.7744 13.5853 21.3232 14.8027C20.8721 16.0202 20.2168 17.1338 19.3574 18.1436L3.85645 2.64258C4.85905 1.7832 5.96908 1.12793 7.18652 0.676758C8.40397 0.225586 9.67513 0 11 0ZM0 11C0 9.68229 0.225586 8.41471 0.676758 7.19727C1.12793 5.97982 1.7832 4.86621 2.64258 3.85645L18.1436 19.3574C17.141 20.2168 16.0309 20.8721 14.8135 21.3232C13.596 21.7744 12.3249 22 11 22C9.99023 22 9.01628 21.8711 8.07812 21.6133C7.13997 21.3555 6.26628 20.9831 5.45703 20.4961C4.64779 20.0091 3.90658 19.4362 3.2334 18.7773C2.56022 18.1185 1.98372 17.3773 1.50391 16.5537C1.02409 15.7301 0.655273 14.8529 0.397461 13.9219C0.139648 12.9909 0.00716146 12.0169 0 11Z" />
</svg>
