<svg width="16" height="20" viewBox="0 0 16 20" fill="none" xmlns="http://www.w3.org/2000/svg">
<path d="M10.5 20C9.11667 20 7.81667 19.7373 6.6 19.212C5.38333 18.6867 4.325 17.9743 3.425 17.075C2.525 16.1757 1.81233 15.1173 1.287 13.9C0.761667 12.6827 0.499333 11.3827 0.5 10C0.500667 8.61733 0.763333 7.31733 1.288 6.1C1.81267 4.88267 2.525 3.82433 3.425 2.925C4.325 2.02567 5.38333 1.313 6.6 0.787001C7.81667 0.261002 9.11667 -0.00133324 10.5 0C11.3833 0 12.246 0.112333 13.088 0.337C13.93 0.561666 14.734 0.899334 15.5 1.35C13.95 2.25 12.729 3.46667 11.837 5C10.945 6.53333 10.4993 8.2 10.5 10C10.5007 11.8 10.9467 13.4667 11.838 15C12.7293 16.5333 13.95 17.75 15.5 18.65C14.7333 19.1 13.929 19.4373 13.087 19.662C12.245 19.8867 11.3827 19.9993 10.5 20Z" />
</svg>
