<svg width="22" height="22" viewBox="0 0 22 22" fill="none" xmlns="http://www.w3.org/2000/svg">
<path d="M21.2666 11.3444C21.2666 17.1434 16.5656 21.8444 10.7666 21.8444C4.96761 21.8444 0.266602 17.1434 0.266602 11.3444C0.266602 5.54543 4.96761 0.844421 10.7666 0.844421C16.5656 0.844421 21.2666 5.54543 21.2666 11.3444Z" fill="#0C192B"/>
<path d="M10.2666 5.84442L7.44732 9.70842L6.2666 15.4204L10.2666 17.8444L14.2666 15.4204L13.0618 9.68442L10.2666 5.84442ZM6.9172 15.1564L7.80877 10.8124L9.83287 16.9324L6.9172 15.1564ZM8.09793 9.82842L10.2666 6.85242L12.4353 9.82842L10.2666 16.3564L8.09793 9.82842ZM10.6762 16.9324L12.7003 10.8124L13.5919 15.1564L10.6762 16.9324Z" fill="white"/>
</svg>
