<svg width="22" height="29" viewBox="0 0 22 29" fill="none" xmlns="http://www.w3.org/2000/svg">
<path d="M21.2876 13.3482C21.2521 13.198 21.18 13.0588 21.0778 12.9431C20.9756 12.8274 20.8464 12.7387 20.7016 12.685L13.9505 10.1525L15.6684 1.55917C15.7073 1.35951 15.6802 1.15261 15.5912 0.969697C15.5022 0.786783 15.3561 0.63778 15.175 0.545173C14.9939 0.452565 14.7876 0.421377 14.5872 0.456316C14.3868 0.491255 14.2032 0.590424 14.0641 0.738859L0.939126 14.8014C0.832526 14.9137 0.75541 15.0507 0.714669 15.2001C0.673927 15.3495 0.670828 15.5066 0.705649 15.6575C0.74047 15.8084 0.812125 15.9483 0.914215 16.0648C1.0163 16.1812 1.14565 16.2705 1.29069 16.3248L8.0442 18.8572L6.33092 27.4412C6.29202 27.6409 6.31912 27.8478 6.40812 28.0307C6.49712 28.2136 6.6432 28.3626 6.82431 28.4552C7.00543 28.5478 7.21175 28.579 7.41214 28.5441C7.61254 28.5091 7.79613 28.41 7.93522 28.2615L21.0602 14.199C21.1649 14.0867 21.2404 13.9503 21.28 13.802C21.3196 13.6536 21.3222 13.4978 21.2876 13.3482ZM8.81647 24.5783L10.0434 18.44C10.0873 18.2223 10.0525 17.9961 9.94523 17.8017C9.83793 17.6072 9.66508 17.4572 9.45748 17.3783L10.9997 15.2001L13.1817 4.42792L11.9559 10.5662C11.912 10.7839 11.1192 13.8858 11.2265 14.0802C11.3338 14.2746 10.9997 12.625 10.9997 12.625L9.45748 17.3783L8.81647 24.5783Z" />
</svg>
