<svg width="24" height="23" viewBox="0 0 24 23" fill="none" xmlns="http://www.w3.org/2000/svg">
<path fill-rule="evenodd" clip-rule="evenodd" d="M13.8768 22.2501V17.2501H10.1268V22.2501H5.75176C5.42024 22.2501 5.1023 22.1184 4.86788 21.8839C4.63346 21.6495 4.50176 21.3316 4.50176 21.0001V13.5001H1.26926C1.02208 13.5 0.780454 13.4267 0.574942 13.2893C0.369429 13.152 0.209255 12.9567 0.114667 12.7284C0.0200799 12.5 -0.00467384 12.2487 0.0435356 12.0063C0.091745 11.7638 0.210753 11.5411 0.385515 11.3663L11.118 0.633805C11.3524 0.399466 11.6703 0.267822 12.0018 0.267822C12.3332 0.267822 12.6511 0.399466 12.8855 0.633805L23.618 11.3663C23.7928 11.5411 23.9118 11.7638 23.96 12.0063C24.0082 12.2487 23.9834 12.5 23.8889 12.7284C23.7943 12.9567 23.6341 13.152 23.4286 13.2893C23.2231 13.4267 22.9815 13.5 22.7343 13.5001H19.5018V21.0001C19.5018 21.3316 19.3701 21.6495 19.1356 21.8839C18.9012 22.1184 18.5833 22.2501 18.2518 22.2501H13.8768Z"/>
</svg>
