<svg width="24" height="26" viewBox="0 0 24 26" fill="none" xmlns="http://www.w3.org/2000/svg">
<path d="M3.26087 3.19463H18.2355C18.2811 3.19463 18.3261 3.19573 18.3706 3.19793L9.19048 12.9368L7.57091 16.1227C7.28934 16.7586 7.99431 17.6185 8.66357 17.3198L11.9136 15.7883L21.3841 5.75181C21.458 6.04612 21.4956 6.34939 21.4959 6.65399V22.5406C21.4959 23.4581 21.1523 24.338 20.5408 24.9868C19.9293 25.6355 19.0998 26 18.235 26H3.26087C2.39603 26 1.56662 25.6355 0.955087 24.9868C0.343555 24.338 0 23.4581 0 22.5406V6.65399C0 5.73651 0.343555 4.85661 0.955087 4.20785C1.56662 3.5591 2.39603 3.19463 3.26087 3.19463ZM20.2588 2.24249L21.9213 3.97985L11.2091 15.3309L8.84369 16.4247C8.62733 16.5214 8.40063 16.2671 8.45342 16.0546L8.46739 16.0129L9.55953 13.5936L20.2588 2.24249ZM22.0425 0.337647C22.4213 -0.0522163 22.9752 -0.119207 23.352 0.214099L23.4131 0.273402L23.6926 0.582547C24.0839 0.985589 24.1035 1.57533 23.7407 2.019L23.6801 2.08819L22.8064 3.04033L21.1568 1.26453L22.0425 0.337647Z"/>
</svg>
