<svg width="26" height="25" viewBox="0 0 26 25" fill="none" xmlns="http://www.w3.org/2000/svg">
<path d="M24.5619 7.72492C23.9433 6.20345 23.0251 4.8219 21.8619 3.66242C20.701 2.50022 19.3224 1.57823 17.8049 0.949174C16.2874 0.320121 14.6608 -0.00366211 13.0182 -0.00366211C11.3755 -0.00366211 9.74888 0.320121 8.2314 0.949174C6.71392 1.57823 5.33532 2.50022 4.1744 3.66242C3.00667 4.82075 2.08417 6.20239 1.4619 7.72492C0.835336 9.23894 0.512548 10.8614 0.511904 12.4999C0.502958 14.1167 0.817459 15.719 1.4369 17.2124L0.811904 21.7749C0.685707 22.3617 0.780457 22.9745 1.078 23.4957C1.37555 24.017 1.85496 24.4102 2.4244 24.5999C2.79565 24.7224 3.19065 24.7524 3.5744 24.6874L8.1369 24.0124C9.66954 24.6682 11.3199 25.0042 12.9869 24.9999C15.0416 24.9996 17.0645 24.4928 18.8766 23.5243C20.6888 22.5559 22.2342 21.1556 23.3762 19.4475C24.5183 17.7395 25.2216 15.7762 25.4241 13.7315C25.6265 11.6868 25.3218 9.62378 24.5369 7.72492H24.5619ZM7.6619 14.5124C7.39762 14.5123 7.13594 14.4602 6.8918 14.359C6.64767 14.2578 6.42585 14.1095 6.23903 13.9225C6.05222 13.7356 5.90404 13.5137 5.80298 13.2695C5.70192 13.0253 5.64995 12.7636 5.65003 12.4993C5.65011 12.235 5.70225 11.9733 5.80346 11.7292C5.90467 11.4851 6.05298 11.2632 6.23992 11.0764C6.42685 10.8896 6.64876 10.7414 6.89296 10.6404C7.13716 10.5393 7.39887 10.4873 7.66315 10.4874C8.1969 10.4874 8.70879 10.6995 9.08621 11.0769C9.46362 11.4543 9.67565 11.9662 9.67565 12.4999C9.67565 13.0337 9.46362 13.5456 9.08621 13.923C8.70879 14.3004 8.19565 14.5124 7.6619 14.5124ZM13.0132 14.5124C12.7489 14.5123 12.4872 14.4602 12.2431 14.359C11.9989 14.2578 11.7771 14.1095 11.5903 13.9225C11.4035 13.7356 11.2553 13.5137 11.1542 13.2695C11.0532 13.0253 11.0012 12.7636 11.0013 12.4993C11.0014 12.235 11.0535 11.9733 11.1547 11.7292C11.2559 11.4851 11.4042 11.2632 11.5912 11.0764C11.7781 10.8896 12 10.7414 12.2442 10.6404C12.4884 10.5393 12.7501 10.4873 13.0144 10.4874C13.5482 10.4874 14.06 10.6995 14.4375 11.0769C14.8149 11.4543 15.0269 11.9662 15.0269 12.4999C15.0269 13.0337 14.8149 13.5456 14.4375 13.923C14.06 14.3004 13.5482 14.5124 13.0144 14.5124M18.3644 14.5124C18.1001 14.5123 17.8384 14.4602 17.5943 14.359C17.3502 14.2578 17.1284 14.1095 16.9415 13.9225C16.7547 13.7356 16.6065 13.5137 16.5055 13.2695C16.4044 13.0253 16.3524 12.7636 16.3525 12.4993C16.3526 12.235 16.4047 11.9733 16.506 11.7292C16.6072 11.4851 16.7555 11.2632 16.9424 11.0764C17.1294 10.8896 17.3513 10.7414 17.5955 10.6404C17.8397 10.5393 18.1014 10.4873 18.3657 10.4874C18.8994 10.4874 19.4113 10.6995 19.7887 11.0769C20.1661 11.4543 20.3782 11.9662 20.3782 12.4999C20.3782 13.0337 20.1661 13.5456 19.7887 13.923C19.4113 14.3004 18.8982 14.5124 18.3644 14.5124Z" />
</svg>
