<svg width="72" height="70" viewBox="0 0 72 70" fill="none" xmlns="http://www.w3.org/2000/svg">
<path fill-rule="evenodd" clip-rule="evenodd" d="M6.25719 6.34405C3.94531 8.68605 3.94531 12.458 3.94531 20V28C3.94531 35.542 3.94531 39.314 6.25719 41.656C8.56907 43.998 12.2874 44 19.7261 44H27.6164C35.0551 44 38.7754 44 41.0853 41.656C43.3952 39.312 43.3972 35.542 43.3972 28V20C43.3972 14.32 43.3972 10.78 42.4109 8.37805V34C41.4731 34.0002 40.5445 33.813 39.678 33.4493C38.8116 33.0855 38.0243 32.5523 37.3611 31.88L35.8777 30.376C34.4535 28.932 33.7433 28.212 32.9365 27.908C32.0496 27.5737 31.0737 27.5737 30.1867 27.908C29.3799 28.212 28.6678 28.932 27.2476 30.376L27.0227 30.602C25.8687 31.772 25.2908 32.358 24.6773 32.466C24.2008 32.5512 23.7101 32.4558 23.2984 32.198C22.7698 31.866 22.4482 31.104 21.8032 29.582L21.6987 29.334C20.2192 25.834 19.4815 24.086 18.1914 23.43C17.5417 23.0998 16.8147 22.9579 16.0906 23.02C14.6526 23.144 13.327 24.49 10.6719 27.18L6.9042 31V5.77405C6.67538 5.94605 6.45971 6.13605 6.25719 6.34405Z" fill="#CDCCCC"/>
<path d="M5.91797 20C5.91797 16.172 5.92191 13.502 6.19019 11.488C6.4486 9.532 6.92399 8.496 7.64991 7.758C8.37977 7.018 9.40157 6.538 11.3308 6.276C13.3172 6.004 15.9506 6 19.7261 6H27.6165C31.3921 6 34.0255 6.004 36.0119 6.276C37.9411 6.538 38.9629 7.02 39.6908 7.756C40.4206 8.496 40.894 9.532 41.1544 11.488C41.4207 13.502 41.4247 16.172 41.4247 20V28C41.4247 31.828 41.4207 34.498 41.1544 36.512C40.894 38.468 40.4186 39.504 39.6908 40.242C38.9629 40.982 37.9411 41.462 36.0119 41.726C34.0255 41.996 31.3921 42 27.6165 42H19.7261C15.9506 42 13.3172 41.996 11.3308 41.726C9.40157 41.462 8.37977 40.98 7.65188 40.242C6.92202 39.504 6.4486 38.468 6.19019 36.512C5.92191 34.498 5.91797 31.828 5.91797 28V20Z" stroke="#CDCCCC" stroke-width="2"/>
<path d="M29.5897 22C31.7686 22 33.5349 20.2091 33.5349 18C33.5349 15.7909 31.7686 14 29.5897 14C27.4109 14 25.6445 15.7909 25.6445 18C25.6445 20.2091 27.4109 22 29.5897 22Z" fill="#CDCCCC"/>
<path d="M28.6035 32C28.6035 31.4696 28.8113 30.9609 29.1813 30.5858C29.5512 30.2107 30.0529 30 30.5761 30H66.0828C66.606 30 67.1077 30.2107 67.4776 30.5858C67.8476 30.9609 68.0554 31.4696 68.0554 32V60C68.0554 60.5304 67.8476 61.0391 67.4776 61.4142C67.1077 61.7893 66.606 62 66.0828 62H30.5761C30.0529 62 29.5512 61.7893 29.1813 61.4142C28.8113 61.0391 28.6035 60.5304 28.6035 60V32Z" stroke="#CDCCCC" stroke-width="4" stroke-linejoin="round"/>
<path d="M60.165 30V62M36.4939 30V62M62.1376 40H68.0554M62.1376 52H68.0554M28.6035 40H34.5213M28.6035 38V42M33.535 30H39.4528M33.535 62H39.4528M57.2061 30H63.1239M57.2061 62H63.1239M28.6035 52H34.5213M28.6035 50V54M68.0554 50V54M68.0554 38V42" stroke="#CDCCCC" stroke-width="4" stroke-linecap="round" stroke-linejoin="round"/>
<path d="M45.3711 41L53.2615 46L45.3711 51V41Z" stroke="#CDCCCC" stroke-width="4" stroke-linejoin="round"/>
</svg>
