<svg width="24" height="28" viewBox="0 0 24 28" fill="none" xmlns="http://www.w3.org/2000/svg">
<path d="M12.0008 0.5C9.68018 0.5 7.45459 1.42187 5.81364 3.06282C4.1727 4.70376 3.25083 6.92936 3.25083 9.25V13.66C3.25101 13.8539 3.20607 14.0452 3.11958 14.2188L0.973329 18.51C0.868487 18.7197 0.818981 18.9526 0.829514 19.1868C0.840047 19.421 0.910269 19.6485 1.03351 19.8479C1.15675 20.0473 1.32892 20.2119 1.53366 20.326C1.73841 20.4401 1.96893 20.5 2.20333 20.5H21.7983C22.0327 20.5 22.2633 20.4401 22.468 20.326C22.6727 20.2119 22.8449 20.0473 22.9681 19.8479C23.0914 19.6485 23.1616 19.421 23.1721 19.1868C23.1827 18.9526 23.1332 18.7197 23.0283 18.51L20.8833 14.2188C20.7964 14.0453 20.751 13.854 20.7508 13.66V9.25C20.7508 6.92936 19.829 4.70376 18.188 3.06282C16.5471 1.42187 14.3215 0.5 12.0008 0.5ZM12.0008 24.25C11.225 24.2504 10.4682 24.0102 9.8346 23.5624C9.20103 23.1147 8.72193 22.4814 8.46333 21.75H15.5383C15.2797 22.4814 14.8006 23.1147 14.1671 23.5624C13.5335 24.0102 12.7766 24.2504 12.0008 24.25Z" />
</svg>
