<svg width="19" height="18" viewBox="0 0 19 18" fill="none" xmlns="http://www.w3.org/2000/svg">
<path d="M2.5 18C1.95 18 1.47933 17.8043 1.088 17.413C0.696667 17.0217 0.500667 16.5507 0.5 16V2C0.5 1.45 0.696 0.979333 1.088 0.588C1.48 0.196667 1.95067 0.000666667 2.5 0H11.5V2H2.5V16H16.5V7H18.5V16C18.5 16.55 18.3043 17.021 17.913 17.413C17.5217 17.805 17.0507 18.0007 16.5 18H2.5ZM5.5 14V12H13.5V14H5.5ZM5.5 11V9H13.5V11H5.5ZM5.5 8V6H13.5V8H5.5ZM14.5 6V4H12.5V2H14.5V0H16.5V2H18.5V4H16.5V6H14.5Z" />
</svg>
