<svg width="16" height="21" viewBox="0 0 16 21" fill="none" xmlns="http://www.w3.org/2000/svg">
<path d="M2.49935 20.1665C1.99518 20.1665 1.56374 19.9871 1.20502 19.6284C0.846293 19.2697 0.666627 18.8379 0.666016 18.3332V9.1665C0.666016 8.66234 0.845682 8.23089 1.20502 7.87217C1.56435 7.51345 1.99579 7.33378 2.49935 7.33317H3.41602V5.49984C3.41602 4.23178 3.86304 3.15103 4.7571 2.25759C5.65115 1.36414 6.7319 0.917116 7.99935 0.916505C9.26679 0.915893 10.3478 1.36292 11.2425 2.25759C12.1372 3.15225 12.5839 4.233 12.5827 5.49984V7.33317H13.4993C14.0035 7.33317 14.4353 7.51284 14.7946 7.87217C15.1539 8.2315 15.3333 8.66295 15.3327 9.1665V18.3332C15.3327 18.8373 15.1533 19.2691 14.7946 19.6284C14.4359 19.9878 14.0041 20.1671 13.4993 20.1665H2.49935ZM7.99935 15.5832C8.50352 15.5832 8.93527 15.4038 9.2946 15.0451C9.65393 14.6864 9.83329 14.2546 9.83268 13.7498C9.83207 13.2451 9.65271 12.8136 9.2946 12.4555C8.93649 12.0974 8.50474 11.9177 7.99935 11.9165C7.49396 11.9153 7.06252 12.0949 6.70502 12.4555C6.34752 12.8161 6.16785 13.2475 6.16602 13.7498C6.16418 14.2522 6.34385 14.6839 6.70502 15.0451C7.06618 15.4063 7.49763 15.5856 7.99935 15.5832ZM5.24935 7.33317H10.7493V5.49984C10.7493 4.73595 10.482 4.08664 9.94727 3.55192C9.41254 3.0172 8.76324 2.74984 7.99935 2.74984C7.23546 2.74984 6.58615 3.0172 6.05143 3.55192C5.51671 4.08664 5.24935 4.73595 5.24935 5.49984V7.33317Z"/>
</svg>
