<svg width="25" height="21" viewBox="0 0 25 21" fill="none" xmlns="http://www.w3.org/2000/svg">
<path d="M23.4892 0.570273V1.59684H19.2705V0.569336H5.55859V1.59684H1.33984V0.569336H0.402344V20.4912H1.33984V19.4656H5.55859V20.4921H19.2695V19.4656H23.4883V20.4921H24.6602V0.570273H23.4892ZM5.55859 18.2375H1.33984V15.3068H5.55859V18.2375ZM5.55859 14.075H1.33984V11.1462H5.55859V14.075ZM5.55859 9.91621H1.33984V6.98746H5.55859V9.91621ZM5.55859 5.75559H1.33984V2.82496H5.55859V5.75559ZM8.54453 15.3031V5.14434L17.3402 10.2237L8.54453 15.3031ZM23.4883 18.2375H19.2695V15.3068H23.4883V18.2375ZM23.4883 14.075H19.2695V11.1462H23.4883V14.075ZM23.4883 9.91621H19.2695V6.98746H23.4883V9.91621ZM23.4883 5.75559H19.2695V2.82496H23.4883V5.75559Z"/>
</svg>
