<svg width="26" height="26" viewBox="0 0 26 26" fill="none" xmlns="http://www.w3.org/2000/svg">
<path d="M11.0007 15.5L24.7507 1.75M11.0007 15.5L15.3757 24.25C15.4305 24.3697 15.5186 24.4711 15.6294 24.5422C15.7402 24.6133 15.8691 24.6511 16.0007 24.6511C16.1323 24.6511 16.2612 24.6133 16.372 24.5422C16.4828 24.4711 16.5709 24.3697 16.6257 24.25L24.7507 1.75M11.0007 15.5L2.2507 11.125C2.13102 11.0702 2.02961 10.9821 1.95851 10.8713C1.88741 10.7605 1.84961 10.6316 1.84961 10.5C1.84961 10.3684 1.88741 10.2395 1.95851 10.1287C2.02961 10.0179 2.13102 9.92984 2.2507 9.875L24.7507 1.75" stroke="white" stroke-width="2" stroke-linecap="round" stroke-linejoin="round"/>
</svg>
