<svg width="21" height="30" viewBox="0 0 21 30" fill="none" xmlns="http://www.w3.org/2000/svg">
<path d="M20.7876 13.8482C20.7521 13.698 20.68 13.5588 20.5778 13.4431C20.4756 13.3274 20.3464 13.2387 20.2016 13.185L13.4505 10.6525L15.1684 2.05917C15.2073 1.85951 15.1802 1.65261 15.0912 1.4697C15.0022 1.28678 14.8561 1.13778 14.675 1.04517C14.4939 0.952565 14.2876 0.921377 14.0872 0.956316C13.8868 0.991255 13.7032 1.09042 13.5641 1.23886L0.439126 15.3014C0.332526 15.4137 0.25541 15.5507 0.214669 15.7001C0.173927 15.8495 0.170828 16.0066 0.205649 16.1575C0.24047 16.3084 0.312125 16.4483 0.414215 16.5648C0.516304 16.6812 0.645647 16.7705 0.790688 16.8248L7.5442 19.3572L5.83092 27.9412C5.79202 28.1409 5.81911 28.3478 5.90812 28.5307C5.99712 28.7136 6.1432 28.8626 6.32431 28.9552C6.50543 29.0478 6.71175 29.079 6.91214 29.0441C7.11254 29.0091 7.29613 28.9099 7.43522 28.7615L20.5602 14.699C20.6649 14.5867 20.7404 14.4503 20.78 14.302C20.8196 14.1536 20.8222 13.9978 20.7876 13.8482ZM8.31647 25.0783L9.54342 18.94C9.58733 18.7223 9.55254 18.4961 9.44523 18.3017C9.33793 18.1072 9.16508 17.9572 8.95748 17.8783L2.7653 15.5521L12.6817 4.92792L11.4559 11.0662C11.412 11.2839 11.4468 11.5101 11.5541 11.7046C11.6614 11.899 11.8343 12.049 12.0419 12.1279L18.2294 14.4482L8.31647 25.0783Z"/>
</svg>
