<svg width="25" height="26" viewBox="0 0 25 26" fill="none" xmlns="http://www.w3.org/2000/svg">
<path d="M12.5 24.25C14.725 24.25 16.9001 23.5902 18.7502 22.354C20.6002 21.1179 22.0422 19.3609 22.8936 17.3052C23.7451 15.2495 23.9679 12.9875 23.5338 10.8052C23.0998 8.62295 22.0283 6.61839 20.455 5.04505C18.8816 3.47171 16.8771 2.40025 14.6948 1.96617C12.5125 1.53209 10.2505 1.75487 8.19481 2.60636C6.13914 3.45785 4.38213 4.89979 3.14597 6.74984C1.9098 8.59989 1.25 10.775 1.25 13C1.25 14.86 1.7 16.6138 2.5 18.1588L1.25 24.25L7.34125 23C8.88625 23.8 10.6413 24.25 12.5 24.25Z" stroke="white" stroke-width="2" stroke-linecap="round" stroke-linejoin="round"/>
</svg>
