<svg width="10" height="16" viewBox="0 0 10 16" fill="none" xmlns="http://www.w3.org/2000/svg">
<path fill-rule="evenodd" clip-rule="evenodd" d="M9.06038 6.93991C9.34128 7.22116 9.49906 7.60241 9.49906 7.99991C9.49906 8.39741 9.34128 8.77866 9.06038 9.05991L3.40438 14.7179C3.12298 14.9992 2.74138 15.1571 2.34352 15.157C1.94567 15.1569 1.56414 14.9988 1.28288 14.7174C1.00162 14.436 0.843656 14.0544 0.84375 13.6566C0.843844 13.2587 1.00198 12.8772 1.28338 12.5959L5.87938 7.99991L1.28338 3.40391C1.01 3.12114 0.858631 2.7423 0.861862 2.34901C0.865093 1.95571 1.02267 1.57941 1.30065 1.30117C1.57863 1.02292 1.95478 0.864993 2.34807 0.861391C2.74137 0.857789 3.12035 1.0088 3.40338 1.28191L9.06138 6.93891L9.06038 6.93991Z"/>
</svg>
