<svg width="19" height="19" viewBox="0 0 19 19" fill="none" xmlns="http://www.w3.org/2000/svg">
<path d="M18.5861 8.83214L2.08607 0.582139C1.95675 0.517464 1.81149 0.49155 1.66778 0.507517C1.52407 0.523485 1.38804 0.580653 1.27607 0.672138C1.16914 0.761758 1.08933 0.879428 1.0456 1.01192C1.00188 1.14441 0.995981 1.28648 1.02857 1.42214L3.24857 9.49964L0.998571 17.5546C0.96799 17.6679 0.964421 17.7868 0.988149 17.9017C1.01188 18.0167 1.06224 18.1244 1.13519 18.2163C1.20814 18.3082 1.30164 18.3818 1.40817 18.431C1.5147 18.4802 1.63129 18.5037 1.74857 18.4996C1.86598 18.4989 1.98158 18.4707 2.08607 18.4171L18.5861 10.1671C18.7089 10.1042 18.812 10.0086 18.884 9.89081C18.956 9.77303 18.9941 9.63767 18.9941 9.49964C18.9941 9.3616 18.956 9.22625 18.884 9.10847C18.812 8.9907 18.7089 8.89508 18.5861 8.83214ZM2.91107 16.3321L4.56857 10.2496H11.4986V8.74964H4.56857L2.91107 2.66714L16.5686 9.49964L2.91107 16.3321Z"/>
</svg>
