<svg width="18" height="23" viewBox="0 0 18 23" fill="none" xmlns="http://www.w3.org/2000/svg">
<path d="M17.2308 10.5786C17.2024 10.4584 17.1448 10.347 17.063 10.2545C16.9812 10.1619 16.8779 10.091 16.7621 10.048L11.3611 8.02203L12.7355 1.14734C12.7666 0.987607 12.745 0.822088 12.6738 0.675757C12.6026 0.529427 12.4857 0.410224 12.3408 0.336138C12.1959 0.262052 12.0309 0.237102 11.8705 0.265053C11.7102 0.293004 11.5634 0.372339 11.4521 0.491087L0.952082 11.7411C0.866802 11.8309 0.805109 11.9405 0.772516 12.0601C0.739923 12.1796 0.737444 12.3053 0.7653 12.426C0.793157 12.5467 0.850482 12.6587 0.932153 12.7518C1.01382 12.845 1.1173 12.9164 1.23333 12.9598L6.63614 14.9858L5.26552 21.853C5.2344 22.0127 5.25607 22.1782 5.32727 22.3245C5.39848 22.4709 5.51534 22.5901 5.66023 22.6642C5.80512 22.7382 5.97018 22.7632 6.1305 22.7352C6.29081 22.7073 6.43769 22.628 6.54896 22.5092L17.049 11.2592C17.1327 11.1693 17.1931 11.0603 17.2248 10.9416C17.2565 10.8229 17.2586 10.6983 17.2308 10.5786ZM7.25396 19.5626L8.23552 14.652C8.27065 14.4779 8.24281 14.2969 8.15697 14.1413C8.07112 13.9858 7.93285 13.8658 7.76677 13.8026L2.81302 11.9417L10.7461 3.44234L9.76552 8.35296C9.73039 8.52712 9.75823 8.70809 9.84407 8.86364C9.92991 9.0192 10.0682 9.13922 10.2343 9.20234L15.1843 11.0586L7.25396 19.5626Z"/>
</svg>
