<svg width="20" height="13" viewBox="0 0 20 13" fill="none" xmlns="http://www.w3.org/2000/svg">
<path d="M10.0007 10.3335C11.0423 10.3335 11.9279 9.96905 12.6573 9.24016C13.3868 8.51127 13.7512 7.62572 13.7506 6.5835C13.7501 5.54127 13.3856 4.656 12.6573 3.92766C11.929 3.19933 11.0434 2.83461 10.0007 2.8335C8.95787 2.83239 8.07259 3.19711 7.34482 3.92766C6.61704 4.65822 6.25232 5.5435 6.25065 6.5835C6.24898 7.6235 6.61371 8.50905 7.34482 9.24016C8.07593 9.97128 8.96121 10.3357 10.0007 10.3335ZM10.0007 8.8335C9.37565 8.8335 8.84454 8.61461 8.40732 8.17683C7.9701 7.73905 7.75121 7.20794 7.75065 6.5835C7.75009 5.95905 7.96898 5.42794 8.40732 4.99016C8.84565 4.55239 9.37676 4.3335 10.0007 4.3335C10.6245 4.3335 11.1559 4.55239 11.5948 4.99016C12.0337 5.42794 12.2523 5.95905 12.2506 6.5835C12.249 7.20794 12.0304 7.73933 11.5948 8.17766C11.1593 8.616 10.6279 8.83461 10.0007 8.8335ZM10.0007 12.8335C7.97287 12.8335 6.12565 12.2677 4.45898 11.136C2.79232 10.0043 1.58398 8.48683 0.833984 6.5835C1.58398 4.68072 2.79232 3.1635 4.45898 2.03183C6.12565 0.900163 7.97287 0.334052 10.0007 0.333497C12.0284 0.332941 13.8756 0.899052 15.5423 2.03183C17.209 3.16461 18.4173 4.68183 19.1673 6.5835C18.4173 8.48627 17.209 10.0038 15.5423 11.136C13.8756 12.2682 12.0284 12.8341 10.0007 12.8335Z"/>
</svg>
